@startuml
title 类图
class users {
    <b>user_id</b> （用户ID）
    name （用户真实姓名）
    github_username （用户GitHub账号）
    update_date （用户GitHub账号修改日期）
    password （用户密码）
    disable （用户是否禁用）
}
class teachers{
    <b>teacher_id</b> （老师工号）
    department （老师所属部门）
    course_id（所授课程）
    term_id（上课学期）
}
class students{
    <b>student_id</b> （学号）
    class （班级）
    course_id(课程号)
    term_id(上课时间)
    result_sum（成绩汇总）
    web_sum （网站正确与否汇总）
}
class course{
     <b>course_id</b> （课程号）
     name(课程名)
     term_id（上课时间）
     content（课程内容）
}
class tests{
     <b>test_id</b> （实验编号）
     title (实验名称)
     scoreItem_id（评分项）
     sum（实验总分）
     avg（实验平均分）
}
class scoreItem{
     <b>scoreItem_id</b> （评分项编号）
     name(评分项名称)
     score（评分项分值）
     content（评分项内容）
}
class term{
     <b>term_id</b> （上课学期编号）
     name(上课学期名称)
     course_id（该学期的课程）
}

users <|- students
users <|-- teachers
class grades {
    <b>student_id</b> （学号）
    <b>test_id</b> （实验编号）
    result （分数）
    memo （评价）
    update_date （评改日期）
}

students "1" -- "n"  grades
students "n" -- "n"  course
students "1" -- "n"  term
students "n" -- "n"  tests
course"1" -- "n"  tests
term"n" -- "n"  course
tests"1" -- "n"  scoreItem
tests "n" -- "1"  grades
teachers "n" -- "n"  term
teachers "n" -- "n"  course
teachers "n" -- "1"  tests
@enduml